<?xml version="1.0" encoding="utf-8"?>
<!-- Generator: Adobe Illustrator 28.0.0, SVG Export Plug-In . SVG Version: 6.00 Build 0)  -->
<svg version="1.1" id="Layer_1" xmlns="http://www.w3.org/2000/svg" xmlns:xlink="http://www.w3.org/1999/xlink" x="0px" y="0px"
	 viewBox="0 0 1015 435" style="enable-background:new 0 0 1015 435;" xml:space="preserve">
<style type="text/css">
	.st0{fill:#A34CDB;}
</style>
<g>
	<path d="M883.39,273.67v-59.61c0-17.87-10.82-28.68-24.92-28.68c-6.34,0-13.28,1.62-19.04,5.39l15.6-27.02
		c3.02-0.62,5.94-0.95,8.56-0.95c27.74,0,44.2,18.57,43.97,49.84v61.02H883.39z M804.8,176.76v96.91h24.16V162.81L804.8,176.76z"/>
	<g>
		<path d="M131.7,111.68h-24.16v161.99h24.16V111.68z M246.98,111.68h-24.16v161.99h24.16V111.68z"/>
		<path class="st0" d="M210.51,187.48l-56.34-32.53c-4-2.31-9,0.58-9,5.2v65.06c0,4.62,5,7.51,9,5.2l56.34-32.53
			C214.51,195.56,214.51,189.79,210.51,187.48z"/>
	</g>
	<path d="M436.14,229.71l14.04,24.32l-42.85,74.21h-28.08l42.85-74.21l-50.68-87.78h28.08L436.14,229.71z M500.86,166.25h-28.08
		l-36.64,63.46h28.08L500.86,166.25z"/>
	<path d="M671.9,180.5l-0.01,24.36h-71.27l14.04-24.32L671.9,180.5z M590.78,252.87c-33.24,0-60.19-26.95-60.19-60.19
		s26.95-60.19,60.19-60.19c8.57,0,16.73,1.8,24.12,5.05l11.84-20.51c-10.83-5.61-23.04-8.78-35.96-8.78
		c-46.63,0-84.44,37.8-84.44,84.44s37.8,84.44,84.44,84.44c30.99,0,57.93-18.03,71.64-44.54l-16-27.71
		C641.09,232.23,618.17,252.87,590.78,252.87z"/>
	<path d="M341.62,246.59c-5.96,4.92-13.61,7.88-21.95,7.88c-15.28,0-28.25-9.94-32.78-23.7l88.91,0c0.67-3.5,1.02-7.1,1.02-10.8
		c0-31.56-25.59-57.15-57.15-57.15c-16.22,0-30.87,6.76-41.27,17.61l12.14,21.04c6.12-9.62,16.88-16,29.13-16
		c15.26,0,28.21,9.91,32.76,23.65l-88.88,0c-0.67,3.51-1.03,7.14-1.03,10.85c0,31.56,25.59,57.15,57.15,57.15
		c12.45,0,23.97-3.98,33.35-10.74L341.62,246.59z"/>
	<path d="M757.56,246.59c-5.96,4.92-13.61,7.88-21.95,7.88c-15.28,0-28.25-9.94-32.78-23.7l88.91,0c0.67-3.5,1.02-7.1,1.02-10.8
		c0-31.56-25.59-57.15-57.15-57.15c-16.22,0-30.87,6.76-41.27,17.61l12.14,21.04c6.12-9.62,16.88-16,29.13-16
		c15.26,0,28.21,9.91,32.76,23.65l-88.88,0c-0.67,3.51-1.03,7.14-1.03,10.85c0,31.56,25.59,57.15,57.15,57.15
		c12.45,0,23.97-3.98,33.35-10.74L757.56,246.59z"/>
</g>
</svg>
